<?xml version="1.0" encoding="UTF-8"?>
<svg width="600" height="300" viewBox="0 0 600 300" xmlns="http://www.w3.org/2000/svg">
  <rect x="30" y="120" width="90" height="36" rx="7" fill="#ffe0b2" stroke="#e65100" stroke-width="2"/>
  <text x="40" y="140" font-size="12" fill="#bf360c">Everlast 0-3V</text>
  <circle cx="120" cy="138" r="7" fill="#fff" stroke="#e65100" stroke-width="2"/>
  <circle cx="120" cy="170" r="7" fill="#fff" stroke="#e65100" stroke-width="2"/>
  <text x="130" y="174" font-size="11" fill="#bf360c">DIV GND</text>
  <line x1="127" y1="138" x2="170" y2="138" stroke="#1976d2" stroke-width="3"/>
  <rect x="170" y="128" width="40" height="20" rx="4" fill="#fafafa" stroke="#333" stroke-width="1.5"/>
  <text x="174" y="143" font-size="13" fill="#333">1kΩ</text>
  <line x1="170" y1="138" x2="210" y2="138" stroke="#1976d2" stroke-width="3"/>
  <circle cx="220" cy="138" r="6" fill="#fff" stroke="#1976d2" stroke-width="2"/>
  <text x="226" y="143" font-size="13" fill="#1976d2">to Arduino A0</text>
  <rect x="212" y="155" width="15" height="20" rx="3" fill="#e0f7fa" stroke="#0288d1" stroke-width="1"/>
  <text x="216" y="170" font-size="11" fill="#0288d1">0.1μF</text>
  <line x1="220" y1="138" x2="220" y2="165" stroke="#0288d1" stroke-width="2"/>
  <line x1="220" y1="175" x2="220" y2="200" stroke="#0288d1" stroke-width="2"/>
  <text x="224" y="197" font-size="11" fill="#0288d1">GND</text>
  <line x1="220" y1="200" x2="215" y2="210" stroke="#888" stroke-width="2"/>
  <line x1="220" y1="200" x2="225" y2="210" stroke="#888" stroke-width="2"/>
  <line x1="215" y1="210" x2="225" y2="210" stroke="#888" stroke-width="2"/>
  <rect x="250" y="155" width="24" height="12" rx="3" fill="#fff8e1" stroke="#c62828" stroke-width="1.5"/>
  <text x="253" y="165" font-size="10" fill="#c62828">TVS</text>
  <text x="253" y="175" font-size="10" fill="#c62828">5V</text>
  <line x1="262" y1="167" x2="262" y2="200" stroke="#c62828" stroke-width="2"/>
  <line x1="262" y1="200" x2="262" y2="205" stroke="#c62828" stroke-width="2"/>
  <text x="268" y="197" font-size="11" fill="#c62828">GND</text>
  <line x1="262" y1="205" x2="257" y2="215" stroke="#888" stroke-width="2"/>
  <line x1="262" y1="205" x2="267" y2="215" stroke="#888" stroke-width="2"/>
  <line x1="257" y1="215" x2="267" y2="215" stroke="#888" stroke-width="2"/>
  <rect x="270" y="155" width="4" height="12" fill="#c62828"/>
  <line x1="220" y1="138" x2="262" y2="167" stroke="#c62828" stroke-width="2"/>
  <line x1="266" y1="161" x2="270" y2="161" stroke="#c62828" stroke-width="2"/>
  <text x="274" y="163" font-size="10" fill="#c62828">stripe</text>
  <text x="274" y="173" font-size="10" fill="#c62828">→ A0</text>
  <text x="292" y="172" font-size="10" fill="#c62828">(cathode)</text>
  <line x1="127" y1="170" x2="220" y2="200" stroke="#777" stroke-width="2" stroke-dasharray="4,3"/>
  <text x="148" y="194" font-size="11" fill="#777">All GNDs joined</text>
</svg>
